<svg width="14" height="14" viewBox="0 0 14 14" fill="none" xmlns="http://www.w3.org/2000/svg">
<g filter="url(#filter0_dii_4_351)">
<path d="M7 13.8411L3.28767 10.1288C2.55345 9.39456 2.05344 8.4591 1.85087 7.4407C1.64831 6.42231 1.75228 5.36671 2.14964 4.4074C2.547 3.44809 3.21991 2.62816 4.08326 2.05128C4.94662 1.47441 5.96165 1.1665 7 1.1665C8.03835 1.1665 9.05338 1.47441 9.91673 2.05128C10.7801 2.62816 11.453 3.44809 11.8504 4.4074C12.2477 5.36671 12.3517 6.42231 12.1491 7.4407C11.9466 8.4591 11.4466 9.39456 10.7123 10.1288L7 13.8411ZM9.8875 9.30396C10.4585 8.73288 10.8474 8.0053 11.0049 7.21322C11.1624 6.42114 11.0815 5.60014 10.7725 4.85403C10.4634 4.10793 9.94002 3.47022 9.26853 3.02156C8.59704 2.57289 7.80759 2.33342 7 2.33342C6.19241 2.33342 5.40296 2.57289 4.73146 3.02156C4.05997 3.47022 3.5366 4.10793 3.22753 4.85403C2.91846 5.60014 2.83757 6.42114 2.9951 7.21322C3.15262 8.0053 3.54148 8.73288 4.1125 9.30396L7 12.1915L9.8875 9.30396ZM7 7.58313C6.69058 7.58313 6.39383 7.46021 6.17504 7.24142C5.95625 7.02262 5.83333 6.72588 5.83333 6.41646C5.83333 6.10704 5.95625 5.81029 6.17504 5.5915C6.39383 5.37271 6.69058 5.24979 7 5.24979C7.30942 5.24979 7.60616 5.37271 7.82496 5.5915C8.04375 5.81029 8.16667 6.10704 8.16667 6.41646C8.16667 6.72588 8.04375 7.02262 7.82496 7.24142C7.60616 7.46021 7.30942 7.58313 7 7.58313Z" fill="white"/>
<path d="M10.2411 9.65751L10.2411 9.65749C10.882 9.01648 11.3185 8.19981 11.4953 7.31074C11.6721 6.42168 11.5813 5.50015 11.2344 4.66268C10.8875 3.82521 10.3 3.10942 9.54631 2.60582C8.7926 2.10222 7.90648 1.83342 7 1.83342C6.09352 1.83342 5.2074 2.10222 4.45368 2.60582C3.69997 3.10942 3.11251 3.82521 2.7656 4.66268C2.41868 5.50015 2.32789 6.42168 2.5047 7.31075C2.68151 8.19981 3.11798 9.01648 3.75893 9.65749L3.75895 9.65751L6.64645 12.545L7 12.8986L7.35355 12.545L10.2411 9.65751ZM7 13.134L3.64122 9.77524C2.97693 9.11094 2.52454 8.26457 2.34127 7.34316C2.15799 6.42175 2.25206 5.46669 2.61158 4.59874C2.9711 3.7308 3.57992 2.98895 4.36105 2.46702C5.14218 1.94509 6.06054 1.6665 7 1.6665C7.93946 1.6665 8.85782 1.94508 9.63895 2.46702C10.4201 2.98895 11.0289 3.7308 11.3884 4.59874C11.7479 5.46669 11.842 6.42175 11.6587 7.34316C11.4755 8.26457 11.0231 9.11094 10.3588 9.77524L7 13.134ZM7 7.08313C6.82319 7.08313 6.65362 7.01289 6.52859 6.88786C6.40357 6.76284 6.33333 6.59327 6.33333 6.41646C6.33333 6.23965 6.40357 6.07008 6.52859 5.94505C6.65362 5.82003 6.82319 5.74979 7 5.74979C7.17681 5.74979 7.34638 5.82003 7.4714 5.94505C7.59643 6.07008 7.66667 6.23965 7.66667 6.41646C7.66667 6.59327 7.59643 6.76284 7.4714 6.88786C7.34638 7.01289 7.17681 7.08313 7 7.08313Z" stroke="black"/>
</g>
<defs>
<filter id="filter0_dii_4_351" x="-41.99" y="-33.5238" width="91.9468" height="94.1216" filterUnits="userSpaceOnUse" color-interpolation-filters="sRGB">
<feFlood flood-opacity="0" result="BackgroundImageFix"/>
<feColorMatrix in="SourceAlpha" type="matrix" values="0 0 0 0 0 0 0 0 0 0 0 0 0 0 0 0 0 0 127 0" result="hardAlpha"/>
<feMorphology radius="3.01655" operator="dilate" in="SourceAlpha" result="effect1_dropShadow_4_351"/>
<feOffset dx="-3.01655" dy="6.0331"/>
<feGaussianBlur stdDeviation="18.8534"/>
<feColorMatrix type="matrix" values="0 0 0 0 0 0 0 0 0 0 0 0 0 0 0 0 0 0 0.1 0"/>
<feBlend mode="normal" in2="BackgroundImageFix" result="effect1_dropShadow_4_351"/>
<feBlend mode="normal" in="SourceGraphic" in2="effect1_dropShadow_4_351" result="shape"/>
<feColorMatrix in="SourceAlpha" type="matrix" values="0 0 0 0 0 0 0 0 0 0 0 0 0 0 0 0 0 0 127 0" result="hardAlpha"/>
<feOffset dx="-4.52482" dy="3.01655"/>
<feGaussianBlur stdDeviation="1.50827"/>
<feComposite in2="hardAlpha" operator="arithmetic" k2="-1" k3="1"/>
<feColorMatrix type="matrix" values="0 0 0 0 1 0 0 0 0 1 0 0 0 0 1 0 0 0 0.25 0"/>
<feBlend mode="normal" in2="shape" result="effect2_innerShadow_4_351"/>
<feColorMatrix in="SourceAlpha" type="matrix" values="0 0 0 0 0 0 0 0 0 0 0 0 0 0 0 0 0 0 127 0" result="hardAlpha"/>
<feOffset dx="1.50827" dy="-2.26241"/>
<feGaussianBlur stdDeviation="2.26241"/>
<feComposite in2="hardAlpha" operator="arithmetic" k2="-1" k3="1"/>
<feColorMatrix type="matrix" values="0 0 0 0 0 0 0 0 0 0 0 0 0 0 0 0 0 0 0.25 0"/>
<feBlend mode="normal" in2="effect2_innerShadow_4_351" result="effect3_innerShadow_4_351"/>
</filter>
</defs>
</svg>
